# xmcd
#
# Track frame offsets:
#	150
#	18987
#	34587
#	55362
#	71187
#	107487
#
# Disc length: 1530 seconds
# Revision: 0
# Processed by: cddbd v1.5.2PL0 Copyright (c) Steve Scherf et al.
# Submitted via: dBpowerAMP V12.0
#
DISCID=4a05f806
DTITLE=Bad Boys Inc. - Change Your Mind
DYEAR=1995
DGENRE=Pop
TTITLE0=Change Your Mind [Radio Mix]
TTITLE1=Nobody Does It Better
TTITLE2=Love Is The Winner
TTITLE3=Change Your Mind [Acappella]
TTITLE4=Bad Boys Inc. Megamix
TTITLE5=Message For Japanese Fans
EXTD=
EXTT0=
EXTT1=
EXTT2=
EXTT3=
EXTT4=
EXTT5=
PLAYORDER=
